# xmcd CD database file
#
# Track frame offsets:
#	150
#	15337
#	35640
#	53297
#	74421
#	87865
#	105113
#	117549
#	137049
#	154546
#	169621
#	189540
#	202470
#	223768
#	242835
#	264471
#	276993
#	294498
#	314438
#
# Disc length: 4417 seconds
#
# Revision: 1
# Processed by: cddbd v1.5.2PL0 Copyright (c) Steve Scherf et al.
# Submitted via: CDex 1.51
#
DISCID=15113f13
DTITLE=Celph Titled - The Gatalog, A Collection Of Chaos [CD 2)
DYEAR=2006
DGENRE=Hip-Hop
TTITLE0=Turntable Science (Feat. DJ Skully)
TTITLE1=Yell At Us (Feat. Apathy and Esoteric)
TTITLE2=Right Now
TTITLE3=All Out War (Feat. Lyrical Comission)
TTITLE4=Eatadiccup (Feat. J-Zone)
TTITLE5=Just A Feelin' (Feat. Majik Most)
TTITLE6=Without Warning (Feat. The2Shanti)
TTITLE7=Devastating MC's (Feat. Esoteric and Apathy)
TTITLE8=S.C.O.M. (Feat. Ryu, Juelz Santana and Mike Shinoda)
TTITLE9=Represent (Feat. Apathy and Motive)
TTITLE10=The Final Word (Feat. L-Fudge)
TTITLE11=7L Freestyle (Feat. Big Scoob and Terra)
TTITLE12=Extra Thug Sauce (J-Zone Remix) (Feat. Guttamouf and Majik Most)
TTITLE13=616 Rewind (Feat. Tonedeff, Deacon The Villain, Sankofa, Kno and Kashal Tee)
TTITLE14=Tropic States (Feat. Tino Vega, RK, Murdock, Vocab, DutchMassive and Primetyme)
TTITLE15=Inaudible
TTITLE16=Fallout (Feat. Walkmen and DutchMassive)
TTITLE17=Critical Conditions (12" Mix) (Feat. Vex Of The Boogiemonsters and DutchMassive)
TTITLE18=Do That (Feat. DutchMassive)
EXTD=YEAR: 2006
EXTT0=
EXTT1=
EXTT2=
EXTT3=
EXTT4=
EXTT5=
EXTT6=
EXTT7=
EXTT8=
EXTT9=
EXTT10=
EXTT11=
EXTT12=
EXTT13=
EXTT14=
EXTT15=
EXTT16=
EXTT17=
EXTT18=
PLAYORDER=
